<?xml version="1.0" encoding="UTF-8" standalone="no"?>
<!-- Created with Inkscape (http://www.inkscape.org/) -->

<svg
   version="1.1"
   id="svg34"
   width="245.33333"
   height="142.66667"
   viewBox="0 0 245.33333 142.66667"
   sodipodi:docname="Legender_transform-eps-converted-to.pdf"
   xmlns:inkscape="http://www.inkscape.org/namespaces/inkscape"
   xmlns:sodipodi="http://sodipodi.sourceforge.net/DTD/sodipodi-0.dtd"
   xmlns="http://www.w3.org/2000/svg"
   xmlns:svg="http://www.w3.org/2000/svg">
  <defs
     id="defs38">
    <inkscape:perspective
       sodipodi:type="inkscape:persp3d"
       inkscape:vp_x="0 : 71.333335 : 1"
       inkscape:vp_y="0 : 1000 : 0"
       inkscape:vp_z="245.33333 : 71.333335 : 1"
       inkscape:persp3d-origin="122.66666 : 47.555557 : 1" />
    <clipPath
       clipPathUnits="userSpaceOnUse"
       id="clipPath52">
      <path
         d="M 0.878906,305.66 H 810.422 V 912.602 H 0.878906 Z"
         id="path50" />
    </clipPath>
    <clipPath
       clipPathUnits="userSpaceOnUse"
       id="clipPath70">
      <path
         d="M 0.878906,305.66 H 810.422 V 912.602 H 0.878906 Z"
         id="path68" />
    </clipPath>
    <clipPath
       clipPathUnits="userSpaceOnUse"
       id="clipPath88">
      <path
         d="m 1012.73,305.66 h 809.55 v 606.942 h -809.55 z"
         id="path86" />
    </clipPath>
    <clipPath
       clipPathUnits="userSpaceOnUse"
       id="clipPath104">
      <path
         d="M 0.878906,305.66 H 810.422 V 912.602 H 0.878906 Z"
         id="path102" />
    </clipPath>
    <clipPath
       clipPathUnits="userSpaceOnUse"
       id="clipPath140">
      <path
         d="m 1012.73,305.66 h 809.55 v 606.942 h -809.55 z"
         id="path138" />
    </clipPath>
    <clipPath
       clipPathUnits="userSpaceOnUse"
       id="clipPath166">
      <path
         d="m 1012.73,305.66 h 809.55 v 606.942 h -809.55 z"
         id="path164" />
    </clipPath>
  </defs>
  <sodipodi:namedview
     id="namedview36"
     pagecolor="#ffffff"
     bordercolor="#000000"
     borderopacity="0.25"
     inkscape:showpageshadow="2"
     inkscape:pageopacity="0.0"
     inkscape:pagecheckerboard="0"
     inkscape:deskcolor="#d1d1d1"
     showgrid="false">
    <inkscape:page
       x="0"
       y="0"
       id="page40"
       width="245.33333"
       height="142.66667" />
  </sodipodi:namedview>
  <g
     id="g42"
     inkscape:groupmode="layer"
     inkscape:label="Page 1"
     transform="matrix(1.3333333,0,0,-1.3333333,0,142.66667)">
    <g
       id="g44"
       transform="scale(0.1)">
      <g
         id="g46">
        <g
           id="g48"
           clip-path="url(#clipPath52)">
          <path
             d="m 365.102,577.371 4.398,-1.762 4.68,-2.05 4.39,-1.75 4.399,-2.059 4.679,-2.039 4.391,-2.051 4.391,-2.051 4.691,-2.05 4.379,-2.34 4.398,-2.348 4.692,-2.051 4.379,-2.34 4.402,-2.339 4.68,-2.641 4.39,-2.34 4.387,-2.629 4.692,-2.351 4.39,-2.629 4.68,-2.93 4.398,-2.633 4.391,-2.636 4.68,-2.922 4.39,-2.942 4.403,-2.918 4.679,-2.929 4.391,-3.219 4.398,-3.223 4.68,-3.219 4.391,-3.218 4.39,-3.231 4.688,-3.511 4.383,-3.508 4.687,-3.512 4.402,-3.512 4.379,-3.808 4.692,-3.508 4.386,-3.813 4.391,-4.097 4.691,-3.813 4.391,-4.09 4.391,-4.398 4.679,-4.09 4.399,-4.402 4.39,-4.391 4.68,-4.387 4.399,-4.691 4.679,-4.68 4.391,-4.691 4.402,-4.981 4.68,-4.968 4.391,-4.981 4.386,-5.269 4.692,-5.27 4.39,-5.269 4.391,-5.563 4.687,-5.558 4.391,-5.86 4.391,-5.859 4.679,-5.852 4.403,-6.148 4.379,-6.153 4.687,-6.148 4.402,-6.441 4.68,-6.731 4.391,-6.738 4.39,-6.731 4.688,-7.019 4.383,-7.031 4.398,-7.321 4.692,-7.609 4.378,-7.32 4.399,-7.911 4.68,-7.898 4.39,-7.91 4.391,-8.199 4.691,-8.493 4.391,-8.488 4.68,-8.789 4.398,-8.781 4.391,-9.07 4.679,-9.079 4.391,-9.66 4.398,-9.672 4.68,-9.66 4.391,-9.949 4.398,-10.238 4.684,-10.551 4.386,-10.539 4.391,-10.832 4.691,-11.129 4.379,-11.1212 4.692,-11.7109 4.398,-11.707 4.391,-12.0117 4.68,-12.2891 4.402,-12.3008 4.379,-12.8906 4.687,-12.8711 4.391,-13.179694"
             style="fill:none;stroke:#000000;stroke-width:1.76;stroke-linecap:butt;stroke-linejoin:round;stroke-miterlimit:10;stroke-dasharray:none;stroke-opacity:1"
             id="path54" />
          <path
             d="m 0.878906,651.441 4.390624,-0.293 4.69141,-0.289 4.39066,-0.289 4.3867,-0.59 4.6836,-0.3 4.3984,-0.578 4.3906,-0.301 4.6797,-0.289 4.3985,-0.582 4.6797,-0.301 4.3906,-0.578 4.3906,-0.59 4.6914,-0.289 4.3867,-0.582 4.3907,-0.301 4.6914,-0.578 4.3906,-0.59 4.3906,-0.582 4.6797,-0.59 4.3984,-0.301 4.3789,-0.57 4.6914,-0.59 4.3902,-0.59 4.692,-0.589 4.387,-0.579 4.39,-0.589 4.692,-0.582 4.379,-0.879 4.402,-0.578 4.687,-0.59 4.379,-0.582 4.403,-0.879 4.679,-0.59 4.391,-0.59 4.398,-0.883 4.68,-0.578 4.391,-0.879 4.679,-0.883 4.403,-0.578 4.386,-0.879 4.68,-0.882 4.402,-0.868 4.391,-0.882 4.68,-0.887 4.39,-0.871 4.399,-0.879 4.68,-0.883 4.39,-0.879 4.399,-1.172 4.679,-0.867 4.391,-0.883 4.391,-1.179 4.691,-0.879 4.391,-1.168 4.679,-1.172 4.399,-1.168 4.379,-0.871 4.691,-1.18 4.391,-1.172 4.39,-1.461 4.688,-1.168 4.39,-1.172 4.391,-1.168 4.68,-1.468 4.398,-1.172 4.391,-1.469 4.679,-1.461 4.391,-1.172 4.691,-1.457 4.391,-1.461 4.391,-1.769 4.687,-1.461 4.391,-1.461 4.39,-1.457 4.68,-1.774 4.399,-1.75 4.39,-1.457 4.68,-1.761 4.402,-1.75 4.391,-1.77 4.68,-2.039"
             style="fill:none;stroke:#000000;stroke-width:1.76;stroke-linecap:butt;stroke-linejoin:round;stroke-miterlimit:10;stroke-dasharray:none;stroke-opacity:1"
             id="path56" />
        </g>
      </g>
      <path
         d="m 671.621,935.57 c -3.23,-6.281 -5.332,-10.898 -6.301,-13.859 -1.461,-4.512 -2.191,-9.723 -2.191,-15.633 0,-5.969 0.832,-11.418 2.5,-16.359 1.031,-3.047 3.062,-7.43 6.082,-13.16 h -3.742 c -3,4.703 -4.86,7.691 -5.578,8.992 -0.719,1.301 -1.512,3.058 -2.352,5.277 -1.148,3.051 -1.961,6.301 -2.41,9.762 -0.231,1.789 -0.34,3.5 -0.34,5.121 0,6.098 0.961,11.519 2.871,16.277 1.219,3.024 3.75,7.551 7.602,13.582 h 3.859"
         style="fill:#000000;fill-opacity:1;fill-rule:nonzero;stroke:none"
         id="path58" />
      <path
         d="m 682.301,898.27 c 0,-1.598 0.578,-2.872 1.758,-3.801 1.171,-0.918 2.562,-1.391 4.171,-1.391 1.95,0 3.848,0.461 5.68,1.363 3.09,1.508 4.629,3.969 4.629,7.379 v 4.481 c -0.68,-0.43 -1.551,-0.789 -2.617,-1.082 -1.07,-0.289 -2.121,-0.489 -3.152,-0.617 l -3.372,-0.43 c -2.019,-0.274 -3.527,-0.692 -4.539,-1.274 -1.711,-0.957 -2.558,-2.507 -2.558,-4.628 z m 13.461,11.242 c 1.277,0.168 2.129,0.699 2.558,1.609 0.25,0.488 0.371,1.199 0.371,2.129 0,1.891 -0.671,3.27 -2.019,4.121 -1.352,0.848 -3.281,1.277 -5.793,1.277 -2.899,0 -4.957,-0.777 -6.168,-2.347 -0.68,-0.86 -1.133,-2.153 -1.332,-3.852 h -5.188 c 0.098,4.071 1.43,6.91 3.969,8.5 2.539,1.602 5.488,2.403 8.852,2.403 3.886,0 7.047,-0.75 9.476,-2.231 2.403,-1.48 3.614,-3.793 3.614,-6.91 v -19.063 c 0,-0.57 0.117,-1.039 0.347,-1.386 0.242,-0.352 0.742,-0.524 1.5,-0.524 0.25,0 0.531,0.012 0.84,0.043 0.301,0.039 0.633,0.078 0.981,0.141 v -4.102 c -0.86,-0.25 -1.52,-0.398 -1.969,-0.468 -0.461,-0.063 -1.071,-0.09 -1.86,-0.09 -1.91,0 -3.3,0.679 -4.16,2.039 -0.461,0.719 -0.781,1.738 -0.961,3.058 -1.129,-1.488 -2.761,-2.769 -4.879,-3.859 -2.121,-1.102 -4.461,-1.641 -7.011,-1.641 -3.071,0 -5.571,0.93 -7.52,2.789 -1.941,1.872 -2.922,4.204 -2.922,7 0,3.071 0.961,5.442 2.871,7.133 1.922,1.688 4.43,2.731 7.539,3.117 l 8.864,1.114"
         style="fill:#000000;fill-opacity:1;fill-rule:nonzero;stroke:none"
         id="path60" />
      <path
         d="m 711.32,876.559 c 3.27,6.39 5.379,11.043 6.328,13.961 1.442,4.429 2.161,9.609 2.161,15.558 0,5.953 -0.829,11.402 -2.5,16.344 -1.028,3.047 -3.059,7.43 -6.079,13.148 h 3.731 c 3.168,-5.058 5.09,-8.179 5.758,-9.371 0.672,-1.179 1.402,-2.808 2.179,-4.89 0.993,-2.579 1.692,-5.118 2.114,-7.629 0.429,-2.508 0.636,-4.93 0.636,-7.258 0,-6.094 -0.968,-11.524 -2.91,-16.301 -1.207,-3.07 -3.726,-7.59 -7.558,-13.562 h -3.86"
         style="fill:#000000;fill-opacity:1;fill-rule:nonzero;stroke:none"
         id="path62" />
      <g
         id="g64">
        <g
           id="g66"
           clip-path="url(#clipPath70)">
          <path
             d="M 0.878906,669.891 H 810.129"
             style="fill:none;stroke:#000000;stroke-width:0.7;stroke-linecap:butt;stroke-linejoin:round;stroke-miterlimit:10;stroke-dasharray:none;stroke-opacity:1"
             id="path72" />
          <path
             d="M 270.531,305.66 V 912.602"
             style="fill:none;stroke:#000000;stroke-width:1.05;stroke-linecap:butt;stroke-linejoin:round;stroke-miterlimit:10;stroke-dasharray:none;stroke-opacity:1"
             id="path74" />
          <path
             d="M 787.59,688.039 810.129,669.891 787.59,651.738"
             style="fill:none;stroke:#000000;stroke-width:0.7;stroke-linecap:butt;stroke-linejoin:round;stroke-miterlimit:10;stroke-dasharray:none;stroke-opacity:1"
             id="path76" />
          <path
             d="m 726.328,601.398 v 45.731 h 6.082 V 625.02 c 0,-2.161 0.469,-3.782 1.41,-4.86 0.942,-1.082 2.34,-1.621 4.211,-1.621 3.399,0 6.61,2.289 9.641,6.859 v 21.731 h 6.078 v -33.527 h -6.078 v 6.296 c -2.883,-4.718 -6.141,-7.07 -9.762,-7.07 -2.101,0 -3.93,0.512 -5.5,1.543 v -12.973 h -6.082"
             style="fill:#000000;fill-opacity:1;fill-rule:nonzero;stroke:none"
             id="path78" />
        </g>
      </g>
      <path
         d="m 281.961,876.301 -11.43,36.301 -11.121,-36.301"
         style="fill:none;stroke:#000000;stroke-width:0.7;stroke-linecap:butt;stroke-linejoin:round;stroke-miterlimit:10;stroke-dasharray:none;stroke-opacity:1"
         id="path80" />
      <g
         id="g82">
        <g
           id="g84"
           clip-path="url(#clipPath88)">
          <path
             d="m 1591.85,764.449 2.35,1.77 2.34,1.75 2.35,1.461 4.68,3.511 2.34,1.77 2.35,1.75 2.04,1.758 4.68,3.511 2.35,1.758 2.34,1.75 2.35,1.762 4.68,3.512 2.34,1.758 2.05,1.761 2.34,1.75 2.34,1.758 2.34,1.762 2.35,1.75 2.34,1.758 2.35,2.05 2.34,1.762 4.68,3.508 2.05,2.051 2.34,1.75 2.34,1.761 2.34,2.047 2.35,1.762 2.34,1.762 2.35,2.047 2.34,1.75 2.34,2.05 2.34,1.75 2.05,1.762 2.34,2.051 2.34,1.758 2.34,2.05 2.35,1.758 2.34,2.051 2.35,1.75 2.34,2.063 2.34,2.039 2.34,1.757 2.05,2.051 2.34,1.75 2.34,2.051 2.34,2.051 2.35,2.051 2.34,1.757 2.35,2.051 2.34,2.051 2.34,1.75 2.05,2.051 2.34,2.058 4.68,4.09 2.34,1.762 2.35,2.047 4.68,4.101 2.35,2.039 2.34,2.063 2.05,2.047 2.34,2.043 2.34,2.047 2.34,2.062 2.34,2.039 2.35,2.051 2.34,2.051 2.34,2.047 2.35,2.05 2.34,2.051 2.05,2.051 2.34,2.051 4.68,4.097 2.34,2.051 2.35,2.34 4.68,4.102 2.35,2.046 4.39,4.391 2.34,2.051 4.68,4.101 2.34,2.34 2.35,2.047 2.34,2.051 2.34,2.34 2.35,2.051 2.05,2.05 2.34,2.34 2.34,2.051 2.34,2.051 2.34,2.347"
             style="fill:none;stroke:#000000;stroke-width:1.76;stroke-linecap:butt;stroke-linejoin:round;stroke-miterlimit:10;stroke-dasharray:none;stroke-opacity:1"
             id="path90" />
          <path
             d="m 1362.9,633.871 2.35,0.879 2.34,0.879 4.68,1.762 2.35,0.879 4.68,1.75 2.34,1.171 2.05,0.887 2.34,0.871 2.35,1.172 4.68,1.758 2.34,1.172 2.35,0.879 2.34,1.172 2.34,0.878 2.34,1.168 2.05,1.172 2.34,0.879 2.35,1.172 4.68,2.34 2.34,0.879 2.35,1.172 4.68,2.34 2.34,1.168 2.05,1.171 2.34,1.168 2.35,1.172 2.34,1.18 4.68,2.34 2.35,1.168 2.34,1.172 2.34,1.468 2.34,1.172 2.05,1.168 2.34,1.172 2.35,1.457 4.68,2.344 2.34,1.469 2.35,1.168 2.34,1.472 2.34,1.168 2.04,1.461 2.35,1.168 2.34,1.473 2.35,1.461 2.34,1.168 4.68,2.929 2.35,1.172 2.34,1.457 2.34,1.473 2.04,1.461 2.35,1.168 2.34,1.461 2.35,1.469 9.36,5.851 2.35,1.469 2.34,1.469 2.04,1.461 2.35,1.46 2.34,1.461 2.34,1.469 2.35,1.461 2.34,1.758 4.68,2.93 2.35,1.461 2.04,1.761 2.34,1.457 2.35,1.473 2.34,1.461 2.34,1.75 2.35,1.469 2.34,1.757 4.68,2.922 2.35,1.77 2.04,1.461 2.34,1.75 2.35,1.469 2.34,1.75 2.34,1.761 2.35,1.457 2.34,1.762 2.34,1.461 2.34,1.758 2.35,1.761 2.04,1.758 2.34,1.461 2.34,1.75"
             style="fill:none;stroke:#000000;stroke-width:1.76;stroke-linecap:butt;stroke-linejoin:round;stroke-miterlimit:10;stroke-dasharray:none;stroke-opacity:1"
             id="path92" />
          <path
             d="m 1134.24,657.59 2.05,-3.219 2.34,-3.223 2.35,-2.636 2.34,-2.633 2.34,-2.34 2.34,-2.348 4.68,-4.089 2.35,-1.762 2.34,-1.762 2.05,-1.457 2.34,-1.762 2.35,-1.461 2.34,-1.168 2.34,-1.468 2.34,-1.172 7.02,-3.512 2.35,-0.879 2.05,-0.879 2.34,-0.871 2.34,-0.89 2.35,-0.879 2.34,-0.578 2.34,-0.883 7.02,-1.75 2.35,-0.59 2.05,-0.578 2.34,-0.301 2.34,-0.578 2.35,-0.301 2.34,-0.293 2.34,-0.59 2.34,-0.289 h 2.34 l 2.34,-0.289 2.06,-0.301 2.34,-0.289 h 2.34 l 2.34,-0.289 h 20.79 l 2.34,0.289 h 2.35 l 2.34,0.289 h 2.34 l 7.02,0.879 h 2.06 l 4.68,0.59 2.34,0.594 2.35,0.289 2.34,0.289 2.34,0.301 2.34,0.578 4.68,0.59 2.06,0.582 2.34,0.289 4.68,1.172 2.35,0.59 2.34,0.289 2.34,0.589 2.34,0.579 2.34,0.589 2.05,0.59 2.35,0.582 2.34,0.59 4.68,1.168 2.35,0.883 4.68,1.168 2.34,0.871 2.34,0.59 2.05,0.879 2.35,0.59 2.34,0.882 2.34,0.579 2.34,0.878 2.35,0.883 2.34,0.867 2.34,0.59 2.34,0.883 2.34,0.867 2.05,0.883"
             style="fill:none;stroke:#000000;stroke-width:1.76;stroke-linecap:butt;stroke-linejoin:round;stroke-miterlimit:10;stroke-dasharray:none;stroke-opacity:1"
             id="path94" />
          <path
             d="m 1129.55,666.371 2.35,-4.68 2.34,-4.101"
             style="fill:none;stroke:#000000;stroke-width:1.76;stroke-linecap:butt;stroke-linejoin:round;stroke-miterlimit:10;stroke-dasharray:none;stroke-opacity:1"
             id="path96" />
        </g>
      </g>
      <g
         id="g98">
        <g
           id="g100"
           clip-path="url(#clipPath104)">
          <path
             d="m 205.48,856.32 v 4.758 h 12.559 c -7.367,5.563 -11.051,12.531 -11.051,20.934 0,6.179 2,11.25 5.992,15.207 3.989,3.961 9.11,5.953 15.348,5.953 6.231,0 11.352,-1.981 15.344,-5.934 4,-3.957 5.988,-9.027 5.988,-15.226 0,-8.422 -3.68,-15.391 -11.051,-20.934 h 12.571 v -4.758 h -18.84 v 4.758 c 6.98,4.711 10.469,11.551 10.469,20.5 0,5.25 -1.278,9.371 -3.848,12.352 -2.563,2.992 -6.102,4.48 -10.633,4.48 -4.508,0 -8.047,-1.488 -10.629,-4.48 -2.57,-2.981 -3.859,-7.11 -3.859,-12.379 0,-8.91 3.5,-15.742 10.5,-20.473 v -4.758 h -18.86"
             style="fill:#000000;fill-opacity:1;fill-rule:nonzero;stroke:none"
             id="path106" />
          <path
             d="m 407.02,703.969 v 5.711 l 17.441,39.992 h 6.43 L 448.27,709.68 v -5.711 z m 5.589,5.711 h 28.653 l -14.301,32.851 -14.352,-32.851"
             style="fill:#000000;fill-opacity:1;fill-rule:nonzero;stroke:none"
             id="path108" />
          <path
             d="m 455.879,749.328 h 31.473 V 743.77 H 462.031 V 730 h 22.258 v -5.41 h -22.258 v -20.621 h -6.152 v 45.359"
             style="fill:#000000;fill-opacity:1;fill-rule:nonzero;stroke:none"
             id="path110" />
          <path
             d="M 281.961,341.969 270.531,305.66 259.41,341.969"
             style="fill:none;stroke:#000000;stroke-width:0.7;stroke-linecap:butt;stroke-linejoin:round;stroke-miterlimit:10;stroke-dasharray:none;stroke-opacity:1"
             id="path112" />
          <path
             d="m 365.102,625.379 4.398,-3.801 4.68,-4.098 4.39,-4.101 4.399,-4.098 4.679,-3.801 4.391,-4.109 4.391,-4.09 4.691,-4.101 4.379,-4.102 4.398,-3.808 4.692,-4.09 4.379,-4.11 4.402,-4.09 4.68,-3.808 4.39,-4.102 4.387,-4.101 4.692,-4.098 4.39,-3.801 4.68,-4.101 4.398,-4.098 4.391,-4.101 4.68,-3.809 4.39,-4.102 4.403,-4.089 4.679,-4.11 4.391,-4.09 4.398,-3.808 4.68,-4.102 4.391,-4.101 4.39,-4.09 4.688,-3.809 4.383,-4.101 4.687,-4.098 4.402,-4.102 4.379,-3.808 4.692,-4.09 4.386,-4.102 4.391,-4.097 4.691,-3.813 4.391,-4.09 4.391,-4.109 4.679,-4.09 4.399,-4.101 4.39,-3.809 4.68,-4.102 4.399,-4.089 4.679,-4.11 4.391,-3.808 4.402,-4.09 4.68,-4.102 4.391,-4.097 4.386,-3.801 4.692,-4.102 4.39,-4.097 4.391,-4.102 4.687,-3.809 4.391,-4.101 4.391,-4.102 4.679,-4.09 4.403,-4.109 4.379,-3.801 4.687,-4.097 4.402,-4.102 4.68,-4.098 4.391,-3.8 4.39,-4.102 4.688,-4.098 4.383,-4.101 4.398,-3.801 4.692,-4.109 4.378,-4.102 4.399,-4.09 4.68,-3.808 4.39,-4.102 4.391,-4.09 4.691,-4.109 4.391,-4.09 4.68,-3.809 4.398,-4.101 4.391,-4.098 4.679,-4.101 4.391,-3.801 4.398,-4.109 4.68,-4.09 4.391,-4.102 4.398,-3.808 4.684,-4.098 4.386,-4.094 4.391,-4.109 4.691,-3.797 4.379,-4.102 4.692,-4.101 4.398,-4.098 4.391,-4.09 4.68,-3.812 4.402,-4.11 4.379,-4.089 4.687,-4.098 4.391,-3.813"
             style="fill:none;stroke:#000000;stroke-width:1.76;stroke-linecap:butt;stroke-linejoin:round;stroke-miterlimit:10;stroke-dasharray:21.08, 21.08;stroke-dashoffset:0;stroke-opacity:1"
             id="path114" />
          <path
             d="m 0.878906,951.828 4.390624,-3.797 4.69141,-4.101 4.39066,-4.102 4.3867,-4.098 4.6836,-3.8 4.3984,-4.102 4.3906,-4.098 4.6797,-4.101 4.3985,-4.098 4.6797,-3.812 4.3906,-4.09 4.3906,-4.098 4.6914,-4.101 4.3867,-3.809 4.3907,-4.101 4.6914,-4.098 4.3906,-4.102 4.3906,-3.8 4.6797,-4.098 4.3984,-4.102 4.3789,-4.09 4.6914,-3.808 4.3902,-4.113 4.692,-4.09 4.387,-4.098 4.39,-4.101 4.692,-3.809 4.379,-4.09 4.402,-4.109 4.687,-4.09 4.379,-3.813 4.403,-4.097 4.679,-4.102 4.391,-4.09 4.398,-3.808 4.68,-4.102 4.391,-4.101 4.679,-4.098 4.403,-3.813 4.386,-4.089 4.68,-4.098 4.402,-4.102 4.391,-4.097 4.68,-3.801 4.39,-4.109 4.399,-4.102 4.68,-4.09 4.39,-3.808 4.399,-4.102 4.679,-4.102 4.391,-4.097 4.391,-3.813 4.691,-4.09 4.391,-4.097 4.679,-4.102 4.399,-3.808 4.379,-4.09 4.691,-4.11 4.391,-4.089 4.39,-4.102 4.688,-3.809 4.39,-4.101 4.391,-4.102 4.68,-4.097 4.398,-3.801 4.391,-4.102 4.679,-4.097 4.391,-4.102 4.691,-3.801 4.391,-4.097 4.391,-4.11 4.687,-4.09 4.391,-3.812 4.39,-4.098 4.68,-4.101 8.789,-8.192 4.68,-3.808 4.402,-4.102 4.391,-4.098 4.68,-4.101"
             style="fill:none;stroke:#000000;stroke-width:1.76;stroke-linecap:butt;stroke-linejoin:round;stroke-miterlimit:10;stroke-dasharray:21.08, 21.08;stroke-dashoffset:0;stroke-opacity:1"
             id="path116" />
          <path
             d="m 365.102,664.91 4.398,-4.98 4.68,-4.981 4.39,-4.679 4.399,-4.981 4.679,-4.98 4.391,-4.969 4.391,-4.981 4.691,-4.98 4.379,-4.68 4.398,-4.98 4.692,-4.981 4.379,-4.968 4.402,-4.981 4.68,-4.68 4.39,-4.98 4.387,-4.981 4.692,-4.968 4.39,-4.981 4.68,-4.687 4.398,-4.973 4.391,-4.98 4.68,-4.981 4.39,-4.976 4.403,-4.981 4.679,-4.68 4.391,-4.98 4.398,-4.973 4.68,-4.976 4.391,-4.981 4.39,-4.679 4.688,-4.981 4.383,-4.98 4.687,-4.969 4.402,-4.981 4.379,-4.691 4.692,-4.969 4.386,-4.98 4.391,-4.981 4.691,-4.968 4.391,-4.981 4.391,-4.691 4.679,-4.969 4.399,-4.981 4.39,-4.98 4.68,-4.98 4.399,-4.68 4.679,-4.981 8.793,-9.961 4.68,-4.968 4.391,-4.692 4.386,-4.976 4.692,-4.973 4.39,-4.98 4.391,-4.969 4.687,-4.981 4.391,-4.679 4.391,-4.981 4.679,-4.98 4.403,-4.981 4.379,-4.968 4.687,-4.692 4.402,-4.969 4.68,-4.98 4.391,-4.981 4.39,-4.976 4.688,-4.684 4.383,-4.976 4.398,-4.981 4.692,-4.98 4.378,-4.973 4.399,-4.976 4.68,-4.692 4.39,-4.969 4.391,-4.98 4.691,-4.981 4.391,-4.968 4.68,-4.692 4.398,-4.98 4.391,-4.969 4.679,-4.98 4.391,-4.981 4.398,-4.68 4.68,-4.98 4.391,-4.969 4.398,-4.98 4.684,-4.981 4.386,-4.98 4.391,-4.68 4.691,-4.98 4.379,-4.981 4.692,-4.98 4.398,-4.981 4.391,-4.679 4.68,-4.981 4.402,-4.969 4.379,-4.98 4.687,-4.969 4.391,-4.691"
             style="fill:none;stroke:#000000;stroke-width:1.76;stroke-linecap:butt;stroke-linejoin:round;stroke-miterlimit:10;stroke-dasharray:1.76, 14.05;stroke-dashoffset:0;stroke-opacity:1"
             id="path118" />
          <path
             d="m 0.878906,1063.68 4.390624,-4.98 4.69141,-4.98 4.39066,-4.97 4.3867,-4.69 4.6836,-4.98 4.3984,-4.97 4.3906,-4.98 4.6797,-4.98 4.3985,-4.68 4.6797,-4.98 4.3906,-4.97 4.3906,-4.98 4.6914,-4.981 4.3867,-4.981 4.3907,-4.68 4.6914,-4.976 4.3906,-4.981 4.3906,-4.98 4.6797,-4.973 4.3984,-4.687 4.3789,-4.981 4.6914,-4.968 4.3902,-4.981 4.692,-4.98 4.387,-4.68 4.39,-4.981 4.692,-4.968 4.379,-4.981 4.402,-4.98 4.687,-4.973 4.379,-4.687 4.403,-4.981 4.679,-4.969 8.789,-9.961 4.68,-4.679 4.391,-4.981 4.679,-4.98 4.403,-4.981 4.386,-4.98 4.68,-4.68 4.402,-4.98 4.391,-4.981 4.68,-4.968 4.39,-4.981 4.399,-4.98 4.68,-4.68 4.39,-4.981 4.399,-4.968 4.679,-4.981 4.391,-4.98 4.391,-4.68 4.691,-4.98 4.391,-4.969 4.679,-4.981 4.399,-4.98 4.379,-4.981 4.691,-4.679 4.391,-4.981 4.39,-4.976 4.688,-4.981 4.39,-4.98 4.391,-4.68 4.68,-4.98 4.398,-4.981 4.391,-4.969 4.679,-4.98 4.391,-4.68 4.691,-4.98 4.391,-4.981 4.391,-4.968 4.687,-4.981 4.391,-4.98 4.39,-4.68 4.68,-4.981 4.399,-4.98 4.39,-4.969 4.68,-4.98 4.402,-4.68 4.391,-4.98 4.68,-4.981"
             style="fill:none;stroke:#000000;stroke-width:1.76;stroke-linecap:butt;stroke-linejoin:round;stroke-miterlimit:10;stroke-dasharray:1.76, 14.05;stroke-dashoffset:0;stroke-opacity:1"
             id="path120" />
          <path
             d="m 382.969,710 v 58.262"
             style="fill:none;stroke:#000000;stroke-width:0.7;stroke-linecap:butt;stroke-linejoin:round;stroke-miterlimit:10;stroke-dasharray:none;stroke-opacity:1"
             id="path122" />
          <path
             d="M 388.52,728.449 382.969,710 l -5.571,18.449"
             style="fill:none;stroke:#000000;stroke-width:0.7;stroke-linecap:butt;stroke-linejoin:round;stroke-miterlimit:10;stroke-dasharray:none;stroke-opacity:1"
             id="path124" />
          <path
             d="m 388.52,750.109 -5.551,18.153 -5.571,-18.153"
             style="fill:none;stroke:#000000;stroke-width:0.7;stroke-linecap:butt;stroke-linejoin:round;stroke-miterlimit:10;stroke-dasharray:none;stroke-opacity:1"
             id="path126" />
        </g>
      </g>
      <path
         d="m 1262.75,935.57 c -3.24,-6.281 -5.34,-10.898 -6.3,-13.859 -1.46,-4.512 -2.2,-9.723 -2.2,-15.633 0,-5.969 0.84,-11.418 2.51,-16.359 1.02,-3.047 3.05,-7.43 6.08,-13.16 h -3.74 c -3,4.703 -4.87,7.691 -5.59,8.992 -0.72,1.301 -1.5,3.058 -2.34,5.277 -1.16,3.051 -1.96,6.301 -2.41,9.762 -0.23,1.789 -0.34,3.5 -0.34,5.121 0,6.098 0.96,11.519 2.87,16.277 1.21,3.024 3.75,7.551 7.6,13.582 h 3.86"
         style="fill:#000000;fill-opacity:1;fill-rule:nonzero;stroke:none"
         id="path128" />
      <path
         d="m 1268.73,934.988 h 5.41 v -16.457 c 1.21,1.578 2.66,2.789 4.35,3.629 1.69,0.828 3.52,1.25 5.5,1.25 4.11,0 7.45,-1.422 10.02,-4.25 2.56,-2.832 3.84,-7 3.84,-12.519 0,-5.231 -1.27,-9.571 -3.8,-13.032 -2.53,-3.461 -6.04,-5.187 -10.53,-5.187 -2.51,0 -4.63,0.609 -6.36,1.816 -1.03,0.723 -2.13,1.883 -3.3,3.461 v -4.23 h -5.13 z m 14.45,-41.66 c 3.01,0 5.26,1.192 6.75,3.582 1.49,2.391 2.24,5.539 2.24,9.449 0,3.481 -0.75,6.36 -2.24,8.653 -1.49,2.277 -3.69,3.429 -6.59,3.429 -2.53,0 -4.75,-0.941 -6.66,-2.812 -1.9,-1.879 -2.85,-4.969 -2.85,-9.27 0,-3.109 0.39,-5.629 1.17,-7.558 1.46,-3.653 4.19,-5.473 8.18,-5.473"
         style="fill:#000000;fill-opacity:1;fill-rule:nonzero;stroke:none"
         id="path130" />
      <path
         d="m 1302.45,876.559 c 3.27,6.39 5.38,11.043 6.33,13.961 1.44,4.429 2.16,9.609 2.16,15.558 0,5.953 -0.83,11.402 -2.5,16.344 -1.03,3.047 -3.06,7.43 -6.09,13.148 h 3.74 c 3.17,-5.058 5.09,-8.179 5.76,-9.371 0.67,-1.179 1.39,-2.808 2.18,-4.89 0.98,-2.579 1.69,-5.118 2.11,-7.629 0.42,-2.508 0.63,-4.93 0.63,-7.258 0,-6.094 -0.96,-11.524 -2.9,-16.301 -1.21,-3.07 -3.73,-7.59 -7.56,-13.562 h -3.86"
         style="fill:#000000;fill-opacity:1;fill-rule:nonzero;stroke:none"
         id="path132" />
      <g
         id="g134">
        <g
           id="g136"
           clip-path="url(#clipPath140)">
          <path
             d="m 1012.73,669.891 h 809.25"
             style="fill:none;stroke:#000000;stroke-width:0.7;stroke-linecap:butt;stroke-linejoin:round;stroke-miterlimit:10;stroke-dasharray:none;stroke-opacity:1"
             id="path142" />
          <path
             d="M 1128.38,305.66 V 912.602"
             style="fill:none;stroke:#000000;stroke-width:1.05;stroke-linecap:butt;stroke-linejoin:round;stroke-miterlimit:10;stroke-dasharray:none;stroke-opacity:1"
             id="path144" />
          <path
             d="m 1798.85,688.039 23.13,-18.148 -23.13,-18.153"
             style="fill:none;stroke:#000000;stroke-width:0.7;stroke-linecap:butt;stroke-linejoin:round;stroke-miterlimit:10;stroke-dasharray:none;stroke-opacity:1"
             id="path146" />
          <path
             d="m 1711.15,643.52 h 7.26 l 22.91,-36.75 v 36.75 h 5.84 v -45.36 h -6.89 l -23.25,36.711 V 598.16 h -5.87 v 45.36"
             style="fill:#000000;fill-opacity:1;fill-rule:nonzero;stroke:none"
             id="path148" />
        </g>
      </g>
      <path
         d="m 1064.4,892.379 h 31.46 v -5.559 h -25.32 v -13.769 h 22.27 v -5.403 h -22.27 V 847.02 h -6.14 v 45.359"
         style="fill:#000000;fill-opacity:1;fill-rule:nonzero;stroke:none"
         id="path150" />
      <path
         d="m 968.762,522.551 v 4.758 h 12.566 c -7.367,5.55 -11.058,12.531 -11.058,20.929 0,6.184 2,11.25 5.992,15.211 4,3.961 9.109,5.942 15.347,5.942 6.243,0 11.351,-1.969 15.351,-5.93 3.99,-3.949 5.99,-9.02 5.99,-15.223 0,-8.418 -3.69,-15.398 -11.06,-20.929 h 12.57 v -4.758 h -18.839 v 4.758 c 6.979,4.711 10.469,11.543 10.469,20.5 0,5.25 -1.28,9.371 -3.84,12.351 -2.57,2.988 -6.109,4.481 -10.641,4.481 -4.507,0 -8.05,-1.493 -10.621,-4.481 -2.578,-2.98 -3.859,-7.109 -3.859,-12.379 0,-8.922 3.5,-15.742 10.5,-20.472 v -4.758 h -18.867"
         style="fill:#000000;fill-opacity:1;fill-rule:nonzero;stroke:none"
         id="path152" />
      <path
         d="m 1041.23,506.031 v 35.571 h 4.73 V 524.41 c 0,-1.68 0.37,-2.941 1.1,-3.789 0.73,-0.84 1.82,-1.262 3.28,-1.262 2.64,0 5.14,1.782 7.49,5.34 v 16.903 h 4.73 V 515.52 h -4.73 v 4.902 c -2.24,-3.672 -4.77,-5.5 -7.59,-5.5 -1.63,0 -3.06,0.398 -4.28,1.199 v -10.09 h -4.73"
         style="fill:#000000;fill-opacity:1;fill-rule:nonzero;stroke:none"
         id="path154" />
      <path
         d="m 1139.81,876.301 -11.43,36.301 -11.7,-36.301"
         style="fill:none;stroke:#000000;stroke-width:0.7;stroke-linecap:butt;stroke-linejoin:round;stroke-miterlimit:10;stroke-dasharray:none;stroke-opacity:1"
         id="path156" />
      <path
         d="m 1139.81,341.969 -11.43,-36.309 -11.7,36.309"
         style="fill:none;stroke:#000000;stroke-width:0.7;stroke-linecap:butt;stroke-linejoin:round;stroke-miterlimit:10;stroke-dasharray:none;stroke-opacity:1"
         id="path158" />
      <g
         id="g160">
        <g
           id="g162"
           clip-path="url(#clipPath166)">
          <path
             d="m 1012.73,421.02 809.25,466.699"
             style="fill:none;stroke:#000000;stroke-width:1.76;stroke-linecap:butt;stroke-linejoin:round;stroke-miterlimit:10;stroke-dasharray:21.08, 21.08;stroke-dashoffset:0;stroke-opacity:1"
             id="path168" />
          <path
             d="m 1110.82,487.781 h 35.14"
             style="fill:none;stroke:#000000;stroke-width:1.76;stroke-linecap:butt;stroke-linejoin:round;stroke-miterlimit:10;stroke-dasharray:none;stroke-opacity:1"
             id="path170" />
          <path
             d="M 1128.38,505.34 V 470.211"
             style="fill:none;stroke:#000000;stroke-width:1.76;stroke-linecap:butt;stroke-linejoin:round;stroke-miterlimit:10;stroke-dasharray:none;stroke-opacity:1"
             id="path172" />
          <path
             d="m 1116.09,500.07 24.59,-24.59"
             style="fill:none;stroke:#000000;stroke-width:1.76;stroke-linecap:butt;stroke-linejoin:round;stroke-miterlimit:10;stroke-dasharray:none;stroke-opacity:1"
             id="path174" />
          <path
             d="m 1140.68,500.07 -24.59,-24.59"
             style="fill:none;stroke:#000000;stroke-width:1.76;stroke-linecap:butt;stroke-linejoin:round;stroke-miterlimit:10;stroke-dasharray:none;stroke-opacity:1"
             id="path176" />
          <path
             d="m 1012.73,457.621 809.25,466.988"
             style="fill:none;stroke:#000000;stroke-width:1.76;stroke-linecap:butt;stroke-linejoin:round;stroke-miterlimit:10;stroke-dasharray:1.76, 14.05;stroke-dashoffset:0;stroke-opacity:1"
             id="path178" />
        </g>
      </g>
    </g>
  </g>
</svg>
